# xmcd
#
# Track frame offsets:
#	150
#	2840
#	13742
#	24270
#	36210
#	42242
#	43970
#	49727
#	57055
#	63407
#	73807
#	83457
#	95092
#	100137
#	112007
#	125942
#	137665
#	151425
#	156622
#	164647
#
# Disc length: 2441 seconds
#
# Revision: 1
# Processed by: cddbd v1.5.1PL0 Copyright (c) Steve Scherf et al.
# Submitted via: dBpowerAMP V4.0
#
DISCID=1b098714
DTITLE=Merle Haggard - Okie From Muskogee (Live)
DYEAR=1969
DGENRE=Country
TTITLE0=Introduciton By Carlton Haney
TTITLE1=Mama Tried
TTITLE2=No Hard Times
TTITLE3=Silver Wings
TTITLE4=Merle Receives Key To Muskogee
TTITLE5=Merle's Introduction to Medley
TTITLE6=Swinging Doors
TTITLE7=I'm A Lonesome Fugitive
TTITLE8=Sing Me Back Home
TTITLE9=Branded Man
TTITLE10=In The Arms Of Love
TTITLE11=Workin' Man Blues
TTITLE12=Merle's Introduction to "Hobo Bill"
TTITLE13=Hobo Bill's Last Ride
TTITLE14=Billy Overcame His Size
TTITLE15=If I Had Left It Up To You
TTITLE16=White Line Fever
TTITLE17=Blue Rock
TTITLE18=Introduction To "Okie From Muskogee"
TTITLE19=Okie From Muskogee
EXTD=+Sound Man+
EXTT0=
EXTT1=
EXTT2=
EXTT3=
EXTT4=
EXTT5=
EXTT6=
EXTT7=
EXTT8=
EXTT9=
EXTT10=
EXTT11=
EXTT12=
EXTT13=
EXTT14=
EXTT15=
EXTT16=
EXTT17=
EXTT18=
EXTT19=
PLAYORDER=
